<?xml version="1.0" encoding="UTF-8" standalone="no"?> <!-- Created with Vectornator for iOS (http://vectornator.io/) --><!DOCTYPE svg PUBLIC "-//W3C//DTD SVG 1.1//EN" "http://www.w3.org/Graphics/SVG/1.1/DTD/svg11.dtd">
<svg height="100%" style="fill-rule:evenodd;clip-rule:evenodd;stroke-linecap:round;stroke-linejoin:round;" xmlns:xlink="http://www.w3.org/1999/xlink" xmlns="http://www.w3.org/2000/svg" xml:space="preserve" width="100%" xmlns:vectornator="http://vectornator.io" version="1.1" viewBox="0 0 511.999 511.999">
<metadata>
<vectornator:setting key="Units" value="Points"/>
<vectornator:setting key="GuidesVisible" value="1"/>
<vectornator:setting key="RulersVisible" value="1"/>
<vectornator:setting key="SnapToGuides" value="1"/>
<vectornator:setting key="DynamicGuides" value="1"/>
</metadata>
<defs/>
<g id="right" vectornator:layerName="right">
<path d="M354.626+197.717C267.85+197.717+197.252+268.2+197.252+354.837C197.252+379.858+203.291+404.756+214.717+426.843L228.621+419.649C218.194+399.493+212.908+377.688+212.908+354.837C212.908+276.833+276.484+213.372+354.627+213.372C432.77+213.372+496.346+276.833+496.346+354.837C496.346+432.841+432.77+496.302+354.626+496.302C309.979+496.302+268.845+475.933+241.771+440.417L229.32+449.908C259.38+489.341+305.052+511.957+354.625+511.957C441.402+511.957+511.999+441.474+511.999+354.837C511.999+268.2+441.403+197.717+354.626+197.717Z" opacity="1" fill="#000000"/>
<path d="M284.765+301.241C257.577+301.241+235.457+323.328+235.457+350.478C235.456+377.628+257.576+399.716+284.765+399.716C311.954+399.716+334.073+377.628+334.073+350.478C334.073+323.328+311.954+301.241+284.765+301.241ZM284.765+384.062C266.209+384.062+251.112+368.997+251.112+350.479C251.111+331.961+266.207+316.897+284.765+316.897C303.321+316.897+318.418+331.962+318.418+350.479C318.418+368.996+303.322+384.062+284.765+384.062Z" opacity="1" fill="#000000"/>
<path d="M361.175+400.406C346.627+400.406+334.791+412.228+334.791+426.758C334.791+441.289+346.627+453.11+361.175+453.11C375.724+453.11+387.56+441.288+387.56+426.758C387.559+412.228+375.723+400.406+361.175+400.406ZM361.176+437.456C355.259+437.456+350.447+432.657+350.447+426.758C350.447+420.859+355.259+416.06+361.176+416.06C367.091+416.06+371.906+420.859+371.906+426.758C371.906+432.658+367.092+437.456+361.176+437.456Z" opacity="1" fill="#000000"/>
<path d="M404.838+258.742C384.271+258.742+367.539+275.452+367.539+295.991C367.539+316.531+384.271+333.241+404.838+333.241C425.405+333.241+442.138+316.531+442.138+295.991C442.138+275.451+425.406+258.742+404.838+258.742ZM404.838+317.587C392.904+317.588+383.194+307.901+383.194+295.992C383.194+284.085+392.904+274.398+404.838+274.398C416.774+274.398+426.483+284.085+426.483+295.992C426.484+307.9+416.773+317.587+404.838+317.587Z" opacity="1" fill="#000000"/>
<path d="M87.514+103.751C60.467+103.751+38.462+125.756+38.462+152.803C38.462+179.85+60.467+201.855+87.514+201.855C114.561+201.855+136.566+179.851+136.566+152.803C136.566+125.755+114.561+103.751+87.514+103.751Z" opacity="1" fill="none"/>
</g>
<g id="left" vectornator:layerName="left">
<path stroke="#000000" stroke-width="15.847" d="M95.514+98.751C68.467+98.751+46.462+120.756+46.462+147.803C46.462+174.85+68.467+196.855+95.514+196.855C122.561+196.855+144.566+174.851+144.566+147.803C144.566+120.755+122.561+98.751+95.514+98.751Z" fill="none" stroke-linecap="round" opacity="1" stroke-linejoin="miter"/>
<path d="M296.424+83.514L282.606+90.871C292.687+109.807+298.327+131.066+299.021+152.628C290.741+157.208+276.318+164.729+268.883+166.7C264.793+167.785+259.556+167.478+254.011+167.155C245.575+166.659+236.012+166.102+227.92+170.748C219.692+175.471+215.363+184.062+211.544+191.641C209.089+196.51+206.771+201.109+203.877+203.98C200.978+206.856+196.343+209.153+191.436+211.585C189.602+212.494+187.71+213.433+185.827+214.448C184.873+213.026+183.793+211.68+182.559+210.447C172.273+200.161+155.544+200.149+145.268+210.426C134.993+220.702+135.004+237.431+145.29+247.717C150.404+252.83+157.165+255.46+163.969+255.46C164.914+255.46+165.859+255.391+166.802+255.289C167.078+260.252+167.238+264.9+166.245+268.586C164.25+275.996+157.117+290.266+152.739+298.55C76.73+296.103+15.655+233.618+15.655+157.162C15.655+79.158+79.231+15.697+157.374+15.697C202.268+15.697+243.539+36.246+270.605+72.076L283.097+62.64C268.733+43.625+249.936+27.873+228.736+17.088C206.503+5.777+182.494+0.042+157.374+0.042C70.598+0.042+0+70.526+0+157.162C0+243.798+70.598+314.282+157.374+314.282L162+314.282L164.231+310.23C164.791+309.214+177.987+285.182+181.362+272.66C183.108+266.175+182.723+259.453+182.35+252.951C181.96+246.141+181.591+239.709+183.924+235.71C186.327+231.591+192.185+228.686+198.387+225.613C204.195+222.735+210.201+219.758+214.902+215.095C219.604+210.431+222.613+204.461+225.522+198.688C228.626+192.529+231.558+186.712+235.712+184.327C239.759+182.003+246.236+182.384+253.097+182.782C259.631+183.165+266.384+183.558+272.894+181.832C285.359+178.528+308.263+165.423+310.834+163.941L314.749+161.681L314.749+157.161C314.75+131.498+308.414+106.032+296.424+83.514ZM170.401+227.824C168.272+231.474+167.224+235.422+166.751+239.431C163.134+240.411+159.148+239.437+156.359+236.649C152.175+232.466+152.165+225.669+156.337+221.497C158.353+219.48+161.036+218.37+163.891+218.37C163.894+218.37+163.897+218.37+163.9+218.37C166.765+218.372+169.459+219.491+171.487+221.52C172.19+222.222+172.778+223.01+173.255+223.858C172.205+225.073+171.24+226.386+170.401+227.824Z" opacity="1" fill="#000000"/>
<path d="M207.587+61.067C187.02+61.067+170.288+77.776+170.288+98.316C170.288+118.856+187.02+135.566+207.587+135.566C228.154+135.566+244.887+118.855+244.887+98.316C244.887+77.777+228.154+61.067+207.587+61.067ZM207.587+119.912C195.652+119.912+185.943+110.225+185.943+98.317C185.943+86.41+195.653+76.723+207.587+76.723C219.523+76.723+229.232+86.41+229.232+98.317C229.232+110.224+219.522+119.912+207.587+119.912Z" opacity="1" fill="#000000"/>
</g>
<g id="crumbs" vectornator:layerName="crumbs">
<path d="M321.008+138.984L332.872+138.984L332.872+138.984L332.872+150.848L332.872+150.848L321.008+150.848L321.008+150.848L321.008+138.984L321.008+138.984Z" opacity="1" fill="#000000"/>
<path d="M288.655+193.605L297.044+185.216L297.044+185.216L305.434+193.606L305.434+193.606L297.045+201.995L297.045+201.995L288.655+193.605L288.655+193.605Z" opacity="1" fill="#000000"/>
<path d="M217.685+230.209L226.075+221.82L226.075+221.82L234.464+230.209L234.464+230.209L226.075+238.599L226.075+238.599L217.685+230.209L217.685+230.209Z" opacity="1" fill="#000000"/>
<path d="M342.925+171.723L354.789+171.723L354.789+171.723L354.789+183.587L354.789+183.587L342.925+183.587L342.925+183.587L342.925+171.723L342.925+171.723Z" opacity="1" fill="#000000"/>
<path d="M96.5515+323.304L104.941+314.914L104.941+314.914L113.331+323.304L113.331+323.304L104.941+331.694L104.941+331.694L96.5515+323.304L96.5515+323.304Z" opacity="1" fill="#000000"/>
<path d="M202.689+261.092L214.553+261.092L214.553+261.092L214.553+272.956L214.553+272.956L202.689+272.956L202.689+272.956L202.689+261.092L202.689+261.092Z" opacity="1" fill="#000000"/>
<path d="M143.2+358.653L155.064+358.653L155.064+358.653L155.064+370.517L155.064+370.517L143.2+370.517L143.2+370.517L143.2+358.653L143.2+358.653Z" opacity="1" fill="#000000"/>
<path d="M135.714+333.938L144.104+325.548L144.104+325.548L152.494+333.938L152.494+333.938L144.104+342.328L144.104+342.328L135.714+333.938L135.714+333.938Z" opacity="1" fill="#000000"/>
<path d="M174.86+318.841L183.249+310.451L183.249+310.451L191.638+318.84L191.638+318.84L183.249+327.23L183.249+327.23L174.86+318.841L174.86+318.841Z" opacity="1" fill="#000000"/>
</g>
</svg>
