<svg height="100%" style="fill-rule:evenodd;clip-rule:evenodd;stroke-linecap:round;stroke-linejoin:round;" xmlns:xlink="http://www.w3.org/1999/xlink" xmlns="http://www.w3.org/2000/svg" xml:space="preserve" width="100%" xmlns:vectornator="http://vectornator.io" version="1.1" viewBox="0 0 64 64">
    <defs/>
    <g id="outline__help" vectornator:layerName="outline__help">
    <path stroke="#ffffff" stroke-width="5" d="M31.6263+3L32.3737+3C48.1836+3+61+15.9837+61+32L61+32C61+48.0163+48.1836+61+32.3737+61L31.6263+61C15.8164+61+3+48.0163+3+32L3+32C3+15.9837+15.8164+3+31.6263+3Z" fill="none" stroke-linecap="butt" opacity="1" stroke-linejoin="miter"/>
    </g>
    <g id="logo__help" vectornator:layerName="logo__help">
    <path d="M22.9378+24.6404C22.9286+24.8585+23.0098+25.0708+23.1623+25.2271C23.3148+25.3833+23.525+25.4698+23.7433+25.4659L26.5007+25.4659C26.962+25.4659+27.3296+25.0882+27.3898+24.6303C27.6905+22.4378+29.1946+20.8402+31.8751+20.8402C34.1678+20.8402+36.2668+21.9866+36.2668+24.744C36.2668+26.8663+35.0167+27.8422+33.0415+29.3262C30.7921+30.9606+29.0107+32.8689+29.1377+35.9673L29.1478+36.6925C29.155+37.1488+29.527+37.5148+29.9833+37.5147L32.6939+37.5147C33.1554+37.5147+33.5294+37.1406+33.5294+36.6792L33.5294+36.3282C33.5294+33.9285+34.4419+33.2299+36.9051+31.3616C38.9405+29.8142+41.0629+28.0963+41.0629+24.49C41.0629+19.4398+36.7981+17+32.129+17C27.8944+17+23.2554+18.9719+22.9378+24.6404ZM28.1417+43.9017C28.1417+45.6832+29.5622+47+31.5174+47C33.5528+47+34.9532+45.6832+34.9532+43.9017C34.9532+42.0568+33.5495+40.76+31.5141+40.76C29.5622+40.76+28.1417+42.0568+28.1417+43.9017Z" fill-rule="evenodd" fill="#ffffff" opacity="1"/>
    </g>
</svg>