<svg height="100%" style="fill-rule:evenodd;clip-rule:evenodd;stroke-linecap:round;stroke-linejoin:round;" xmlns:xlink="http://www.w3.org/1999/xlink" xmlns="http://www.w3.org/2000/svg" xml:space="preserve" width="100%" xmlns:vectornator="http://vectornator.io" version="1.1" viewBox="0 0 64 64">
    <defs/>
    <g id="outline__ig" vectornator:layerName="outline__ig">
    <path stroke="#ffffff" stroke-width="5" d="M31.6263+3L32.3737+3C48.1836+3+61+15.9837+61+32L61+32C61+48.0163+48.1836+61+32.3737+61L31.6263+61C15.8164+61+3+48.0163+3+32L3+32C3+15.9837+15.8164+3+31.6263+3Z" fill="none" stroke-linecap="butt" opacity="1" stroke-linejoin="round"/>
    </g>
    <g id="logo__ig" vectornator:layerName="logo__ig">
    <path d="M32+17C27.9294+17+27.4175+17.0187+25.8181+17.09C24.2187+17.165+23.1294+17.4163+22.175+17.7875C21.1739+18.164+20.2672+18.7547+19.5181+19.5181C18.7551+20.2676+18.1646+21.1742+17.7875+22.175C17.4163+23.1275+17.1631+24.2187+17.09+25.8125C17.0187+27.4156+17+27.9256+17+32.0019C17+36.0744+17.0187+36.5844+17.09+38.1838C17.165+39.7813+17.4162+40.8706+17.7875+41.825C18.1719+42.8113+18.6837+43.6475+19.5181+44.4819C20.3506+45.3163+21.1869+45.83+22.1731+46.2125C23.1294+46.5838+24.2169+46.8369+25.8144+46.91C27.4156+46.9812+27.9256+47+32+47C36.0744+47+36.5825+46.9813+38.1838+46.91C39.7794+46.835+40.8725+46.5838+41.8269+46.2125C42.8273+45.8358+43.7334+45.2451+44.4819+44.4819C45.3163+43.6475+45.8281+42.8113+46.2125+41.825C46.5819+40.8706+46.835+39.7812+46.91+38.1837C46.9812+36.5844+47+36.0744+47+32C47+27.9256+46.9813+27.4156+46.91+25.8144C46.835+24.2187+46.5819+23.1275+46.2125+22.175C45.8355+21.1742+45.2449+20.2675+44.4819+19.5181C43.7331+18.7544+42.8262+18.1637+41.825+17.7875C40.8687+17.4162+39.7775+17.1631+38.1819+17.09C36.5806+17.0187+36.0725+17+31.9963+17L32.0019+17L32+17ZM30.6556+19.7038L32.0019+19.7038C36.0069+19.7038+36.4812+19.7169+38.0619+19.79C39.5244+19.8556+40.3194+20.1013+40.8481+20.3056C41.5475+20.5775+42.0481+20.9038+42.5731+21.4288C43.0981+21.9538+43.4225+22.4525+43.6944+23.1538C43.9006+23.6806+44.1444+24.4756+44.21+25.9381C44.2831+27.5188+44.2981+27.9931+44.2981+31.9962C44.2981+35.9994+44.2831+36.4756+44.21+38.0563C44.1444+39.5188+43.8988+40.3119+43.6944+40.8406C43.4539+41.4919+43.0701+42.0808+42.5713+42.5638C42.0463+43.0888+41.5475+43.4131+40.8463+43.685C40.3213+43.8913+39.5263+44.135+38.0619+44.2025C36.4813+44.2738+36.0069+44.2906+32.0019+44.2906C27.9969+44.2906+27.5206+44.2738+25.94+44.2025C24.4775+44.135+23.6844+43.8913+23.1556+43.685C22.5041+43.4449+21.9146+43.0617+21.4306+42.5638C20.9314+42.0801+20.547+41.4906+20.3056+40.8388C20.1013+40.3119+19.8556+39.5169+19.79+38.0544C19.7188+36.4738+19.7038+35.9994+19.7038+31.9925C19.7038+27.9875+19.7188+27.515+19.79+25.9344C19.8575+24.4719+20.1013+23.6769+20.3075+23.1481C20.5794+22.4488+20.9056+21.9481+21.4306+21.4231C21.9556+20.8981+22.4544+20.5738+23.1556+20.3019C23.6844+20.0956+24.4775+19.8519+25.94+19.7844C27.3238+19.7206+27.86+19.7019+30.6556+19.7C30.6556+19.7+30.6556+19.7038+30.6556+19.7038ZM40.0081+22.1937C39.014+22.1938+38.2081+22.9996+38.2081+23.9937C38.2081+24.9879+39.014+25.7937+40.0081+25.7937C41.0022+25.7937+41.8081+24.9879+41.8081+23.9937C41.8081+22.9996+41.0022+22.1937+40.0081+22.1937ZM32.0019+24.2975C29.2211+24.2541+26.6327+25.7128+25.2296+28.1141C23.8265+30.5154+23.8265+33.4865+25.2296+35.8878C26.6327+38.2891+29.2211+39.7478+32.0019+39.7044C36.2095+39.6387+39.5861+36.2091+39.5861+32.0009C39.5861+27.7928+36.2095+24.3631+32.0019+24.2975ZM32.0019+26.9994C34.7636+26.9994+37.0025+29.2382+37.0025+32C37.0025+34.7618+34.7636+37.0006+32.0019+37.0006C29.2401+37.0006+27.0012+34.7618+27.0012+32C27.0012+29.2382+29.2401+26.9994+32.0019+26.9994Z" opacity="1" fill="#ffffff"/>
    </g>
</svg>