<svg height="100%" style="fill-rule:evenodd;clip-rule:evenodd;stroke-linecap:round;stroke-linejoin:round;" xmlns:xlink="http://www.w3.org/1999/xlink" xmlns="http://www.w3.org/2000/svg" xml:space="preserve" width="100%" xmlns:vectornator="http://vectornator.io" version="1.1" viewBox="0 0 64 64">
    <defs/>
    <g id="outline__share" vectornator:layerName="outline__share">
    <path stroke="#ffffff" stroke-width="5" d="M31.6263+3L32.3737+3C48.1836+3+61+15.9837+61+32L61+32C61+48.0163+48.1836+61+32.3737+61L31.6263+61C15.8164+61+3+48.0163+3+32L3+32C3+15.9837+15.8164+3+31.6263+3Z" fill="none" stroke-linecap="butt" opacity="1" stroke-linejoin="round"/>
    </g>
    <g id="logo__share" vectornator:layerName="logo__share">
    <path d="M35.6248+21.6862C35.6245+19.4164+37.2506+17.4725+39.4848+17.0719C41.719+16.6713+43.9192+17.929+44.7076+20.0576C45.496+22.1861+44.646+24.5736+42.6899+25.7251C40.7338+26.8765+38.2337+26.4609+36.7553+24.7386L24.1595+30.5884C24.4491+31.506+24.4491+32.4906+24.1595+33.4083L36.7553+39.2581C38.3239+37.4339+41.0187+37.0934+42.9917+38.47C44.9647+39.8467+45.5751+42.4935+44.4043+44.5952C43.2335+46.6969+40.6617+47.571+38.4527+46.6179C36.2437+45.6649+35.1148+43.1943+35.8404+40.9005L23.2446+35.0507C21.9675+36.539+19.899+37.075+18.0599+36.3941C16.2208+35.7132+15+33.9594+15+31.9983C15+30.0373+16.2208+28.2835+18.0599+27.6026C19.899+26.9217+21.9675+27.4577+23.2446+28.9459L35.8404+23.0962C35.697+22.6399+35.6243+22.1644+35.6248+21.6862Z" opacity="1" fill="#ffffff"/>
    </g>
</svg>