<svg height="100%" style="fill-rule:evenodd;clip-rule:evenodd;stroke-linecap:round;stroke-linejoin:round;" xmlns:xlink="http://www.w3.org/1999/xlink" xmlns="http://www.w3.org/2000/svg" xml:space="preserve" width="100%" xmlns:vectornator="http://vectornator.io" version="1.1" viewBox="0 0 64 64">
    <defs/>
    <g id="outline__tw" vectornator:layerName="outline__tw">
    <path stroke="#ffffff" stroke-width="5" d="M31.6263+3L32.3737+3C48.1836+3+61+15.9837+61+32L61+32C61+48.0163+48.1836+61+32.3737+61L31.6263+61C15.8164+61+3+48.0163+3+32L3+32C3+15.9837+15.8164+3+31.6263+3Z" fill="none" stroke-linecap="butt" opacity="1" stroke-linejoin="round"/>
    </g>
    <g id="logo__tw" vectornator:layerName="logo__tw">
    <path d="M26.4238+44.1883C37.745+44.1883+43.9381+34.8076+43.9381+26.687C43.9381+26.4245+43.9381+26.1583+43.9269+25.8958C45.1326+25.0229+46.1732+23.9423+47+22.7045C45.8737+23.2011+44.6802+23.5284+43.4581+23.6758C44.7454+22.9063+45.7095+21.6957+46.1713+20.2689C44.9619+20.9854+43.6382+21.4883+42.2581+21.7558C40.3506+19.7243+37.3171+19.226+34.86+20.5406C32.4029+21.8552+31.1341+24.6554+31.7656+27.3695C26.8162+27.1213+22.2046+24.7845+19.0775+20.9401C17.4484+23.7538+18.2836+27.349+20.9863+29.1564C20.0104+29.1232+19.056+28.8612+18.2+28.3914L18.2+28.4758C18.2035+31.4037+20.2659+33.9253+23.135+34.5095C22.6067+34.655+22.0611+34.7276+21.5131+34.7251C21.1268+34.7263+20.7413+34.6905+20.3619+34.6183C21.1683+37.1248+23.4798+38.8409+26.1125+38.8876C23.931+40.601+21.2364+41.5303+18.4625+41.5258C17.9737+41.5278+17.4853+41.4996+17+41.4414C19.8153+43.2362+23.0849+44.1893+26.4238+44.1883Z" opacity="1" fill="#ffffff"/>
    </g>
</svg>