<?xml version="1.0" encoding="utf-8"?>
<!-- Generator: Adobe Illustrator 25.2.1, SVG Export Plug-In . SVG Version: 6.00 Build 0)  -->
<svg version="1.1" id="Layer_1" xmlns="http://www.w3.org/2000/svg" xmlns:xlink="http://www.w3.org/1999/xlink" x="0px" y="0px"
	 viewBox="0 0 14400 14400" style="enable-background:new 0 0 14400 14400;" xml:space="preserve">
<style type="text/css">
	.st0{fill:#3464FF;}
	.st1{clip-path:url(#SVGID_2_);fill:#00418B;}
	.st2{clip-path:url(#SVGID_2_);fill:#00418C;}
	.st3{clip-path:url(#SVGID_2_);fill:#01428D;}
	.st4{clip-path:url(#SVGID_2_);fill:#01428E;}
	.st5{clip-path:url(#SVGID_2_);fill:#02428F;}
	.st6{clip-path:url(#SVGID_2_);fill:#024390;}
	.st7{clip-path:url(#SVGID_2_);fill:#034391;}
	.st8{clip-path:url(#SVGID_2_);fill:#034392;}
	.st9{clip-path:url(#SVGID_2_);fill:#044393;}
	.st10{clip-path:url(#SVGID_2_);fill:#044494;}
	.st11{clip-path:url(#SVGID_2_);fill:#054495;}
	.st12{clip-path:url(#SVGID_2_);fill:#054496;}
	.st13{clip-path:url(#SVGID_2_);fill:#054597;}
	.st14{clip-path:url(#SVGID_2_);fill:#064598;}
	.st15{clip-path:url(#SVGID_2_);fill:#064599;}
	.st16{clip-path:url(#SVGID_2_);fill:#07469A;}
	.st17{clip-path:url(#SVGID_2_);fill:#07469B;}
	.st18{clip-path:url(#SVGID_2_);fill:#08469C;}
	.st19{clip-path:url(#SVGID_2_);fill:#08469D;}
	.st20{clip-path:url(#SVGID_2_);fill:#09479E;}
	.st21{clip-path:url(#SVGID_2_);fill:#09479F;}
	.st22{clip-path:url(#SVGID_2_);fill:#0947A0;}
	.st23{clip-path:url(#SVGID_2_);fill:#0A48A1;}
	.st24{clip-path:url(#SVGID_2_);fill:#0A48A2;}
	.st25{clip-path:url(#SVGID_2_);fill:#0B48A3;}
	.st26{clip-path:url(#SVGID_2_);fill:#0B49A4;}
	.st27{clip-path:url(#SVGID_2_);fill:#0C49A5;}
	.st28{clip-path:url(#SVGID_2_);fill:#0C49A6;}
	.st29{clip-path:url(#SVGID_2_);fill:#0D4AA7;}
	.st30{clip-path:url(#SVGID_2_);fill:#0D4AA8;}
	.st31{clip-path:url(#SVGID_2_);fill:#0E4AA9;}
	.st32{clip-path:url(#SVGID_2_);fill:#0E4AAA;}
	.st33{clip-path:url(#SVGID_2_);fill:#0E4BAB;}
	.st34{clip-path:url(#SVGID_2_);fill:#0F4BAC;}
	.st35{clip-path:url(#SVGID_2_);fill:#0F4BAD;}
	.st36{clip-path:url(#SVGID_2_);fill:#104CAE;}
	.st37{clip-path:url(#SVGID_2_);fill:#104CAF;}
	.st38{clip-path:url(#SVGID_2_);fill:#114CB0;}
	.st39{clip-path:url(#SVGID_2_);fill:#114DB1;}
	.st40{clip-path:url(#SVGID_2_);fill:#124DB2;}
	.st41{clip-path:url(#SVGID_2_);fill:#124DB3;}
	.st42{clip-path:url(#SVGID_2_);fill:#134DB4;}
	.st43{clip-path:url(#SVGID_2_);fill:#134EB5;}
	.st44{clip-path:url(#SVGID_2_);fill:#134EB6;}
	.st45{clip-path:url(#SVGID_2_);fill:#144EB7;}
	.st46{clip-path:url(#SVGID_2_);fill:#144FB8;}
	.st47{clip-path:url(#SVGID_2_);fill:#154FB9;}
	.st48{clip-path:url(#SVGID_2_);fill:#154FBA;}
	.st49{clip-path:url(#SVGID_2_);fill:#1650BB;}
	.st50{clip-path:url(#SVGID_2_);fill:#1650BC;}
	.st51{clip-path:url(#SVGID_2_);fill:#1750BD;}
	.st52{clip-path:url(#SVGID_2_);fill:#1751BE;}
	.st53{clip-path:url(#SVGID_2_);fill:#1851BF;}
	.st54{clip-path:url(#SVGID_2_);fill:#1851C0;}
	.st55{clip-path:url(#SVGID_2_);fill:#1851C1;}
	.st56{clip-path:url(#SVGID_2_);fill:#1952C2;}
	.st57{clip-path:url(#SVGID_2_);fill:#1952C3;}
	.st58{clip-path:url(#SVGID_2_);fill:#1A52C4;}
	.st59{clip-path:url(#SVGID_2_);fill:#1A53C6;}
	.st60{clip-path:url(#SVGID_2_);fill:#1B53C7;}
	.st61{clip-path:url(#SVGID_2_);fill:#1B53C8;}
	.st62{clip-path:url(#SVGID_2_);fill:#1C54C9;}
	.st63{clip-path:url(#SVGID_2_);fill:#1C54CA;}
	.st64{clip-path:url(#SVGID_2_);fill:#1C54CB;}
	.st65{clip-path:url(#SVGID_2_);fill:#1D54CC;}
	.st66{clip-path:url(#SVGID_2_);fill:#1D55CD;}
	.st67{clip-path:url(#SVGID_2_);fill:#1E55CE;}
	.st68{clip-path:url(#SVGID_2_);fill:#1E55CF;}
	.st69{clip-path:url(#SVGID_2_);fill:#1F56D0;}
	.st70{clip-path:url(#SVGID_2_);fill:#1F56D1;}
	.st71{clip-path:url(#SVGID_2_);fill:#2056D2;}
	.st72{clip-path:url(#SVGID_2_);fill:#2057D3;}
	.st73{clip-path:url(#SVGID_2_);fill:#2157D4;}
	.st74{clip-path:url(#SVGID_2_);fill:#2157D5;}
	.st75{clip-path:url(#SVGID_2_);fill:#2158D6;}
	.st76{clip-path:url(#SVGID_2_);fill:#2258D7;}
	.st77{clip-path:url(#SVGID_2_);fill:#2258D8;}
	.st78{clip-path:url(#SVGID_2_);fill:#2358D9;}
	.st79{clip-path:url(#SVGID_2_);fill:#2359DA;}
	.st80{clip-path:url(#SVGID_2_);fill:#2459DB;}
	.st81{clip-path:url(#SVGID_2_);fill:#2459DC;}
	.st82{clip-path:url(#SVGID_2_);fill:#255ADD;}
	.st83{clip-path:url(#SVGID_2_);fill:#255ADE;}
	.st84{clip-path:url(#SVGID_2_);fill:#265ADF;}
	.st85{clip-path:url(#SVGID_2_);fill:#265BE0;}
	.st86{clip-path:url(#SVGID_2_);fill:#265BE1;}
	.st87{clip-path:url(#SVGID_2_);fill:#275BE2;}
	.st88{clip-path:url(#SVGID_2_);fill:#275BE3;}
	.st89{clip-path:url(#SVGID_2_);fill:#285CE4;}
	.st90{clip-path:url(#SVGID_2_);fill:#285CE5;}
	.st91{clip-path:url(#SVGID_2_);fill:#295CE6;}
	.st92{clip-path:url(#SVGID_2_);fill:#295DE7;}
	.st93{clip-path:url(#SVGID_2_);fill:#2A5DE8;}
	.st94{clip-path:url(#SVGID_2_);fill:#2A5DE9;}
	.st95{clip-path:url(#SVGID_2_);fill:#2B5EEA;}
	.st96{clip-path:url(#SVGID_2_);fill:#2B5EEB;}
	.st97{clip-path:url(#SVGID_2_);fill:#2B5EEC;}
	.st98{clip-path:url(#SVGID_2_);fill:#2C5FED;}
	.st99{clip-path:url(#SVGID_2_);fill:#2C5FEE;}
	.st100{clip-path:url(#SVGID_2_);fill:#2D5FEF;}
	.st101{clip-path:url(#SVGID_2_);fill:#2D5FF0;}
	.st102{clip-path:url(#SVGID_2_);fill:#2E60F1;}
	.st103{clip-path:url(#SVGID_2_);fill:#2E60F2;}
	.st104{clip-path:url(#SVGID_2_);fill:#2F60F3;}
	.st105{clip-path:url(#SVGID_2_);fill:#2F61F4;}
	.st106{clip-path:url(#SVGID_2_);fill:#2F61F5;}
	.st107{clip-path:url(#SVGID_2_);fill:#3061F6;}
	.st108{clip-path:url(#SVGID_2_);fill:#3062F7;}
	.st109{clip-path:url(#SVGID_2_);fill:#3162F8;}
	.st110{clip-path:url(#SVGID_2_);fill:#3162F9;}
	.st111{clip-path:url(#SVGID_2_);fill:#3262FA;}
	.st112{clip-path:url(#SVGID_2_);fill:#3263FB;}
	.st113{clip-path:url(#SVGID_2_);fill:#3363FC;}
	.st114{clip-path:url(#SVGID_2_);fill:#3363FD;}
	.st115{clip-path:url(#SVGID_2_);fill:#3464FE;}
	.st116{clip-path:url(#SVGID_2_);fill:#3464FF;}
	.st117{clip-path:url(#SVGID_4_);fill:#3464FF;}
	.st118{clip-path:url(#SVGID_4_);fill:#3464FE;}
	.st119{clip-path:url(#SVGID_4_);fill:#3363FD;}
	.st120{clip-path:url(#SVGID_4_);fill:#3363FC;}
	.st121{clip-path:url(#SVGID_4_);fill:#3263FB;}
	.st122{clip-path:url(#SVGID_4_);fill:#3262FA;}
	.st123{clip-path:url(#SVGID_4_);fill:#3162F9;}
	.st124{clip-path:url(#SVGID_4_);fill:#3162F8;}
	.st125{clip-path:url(#SVGID_4_);fill:#3062F7;}
	.st126{clip-path:url(#SVGID_4_);fill:#3061F6;}
	.st127{clip-path:url(#SVGID_4_);fill:#2F61F5;}
	.st128{clip-path:url(#SVGID_4_);fill:#2F61F4;}
	.st129{clip-path:url(#SVGID_4_);fill:#2F60F3;}
	.st130{clip-path:url(#SVGID_4_);fill:#2E60F2;}
	.st131{clip-path:url(#SVGID_4_);fill:#2E60F1;}
	.st132{clip-path:url(#SVGID_4_);fill:#2D5FF0;}
	.st133{clip-path:url(#SVGID_4_);fill:#2D5FEF;}
	.st134{clip-path:url(#SVGID_4_);fill:#2C5FEE;}
	.st135{clip-path:url(#SVGID_4_);fill:#2C5FED;}
	.st136{clip-path:url(#SVGID_4_);fill:#2B5EEC;}
	.st137{clip-path:url(#SVGID_4_);fill:#2B5EEB;}
	.st138{clip-path:url(#SVGID_4_);fill:#2B5EEA;}
	.st139{clip-path:url(#SVGID_4_);fill:#2A5DE9;}
	.st140{clip-path:url(#SVGID_4_);fill:#2A5DE8;}
	.st141{clip-path:url(#SVGID_4_);fill:#295DE7;}
	.st142{clip-path:url(#SVGID_4_);fill:#295CE6;}
	.st143{clip-path:url(#SVGID_4_);fill:#285CE5;}
	.st144{clip-path:url(#SVGID_4_);fill:#285CE4;}
	.st145{clip-path:url(#SVGID_4_);fill:#275BE3;}
	.st146{clip-path:url(#SVGID_4_);fill:#275BE2;}
	.st147{clip-path:url(#SVGID_4_);fill:#265BE1;}
	.st148{clip-path:url(#SVGID_4_);fill:#265BE0;}
	.st149{clip-path:url(#SVGID_4_);fill:#265ADF;}
	.st150{clip-path:url(#SVGID_4_);fill:#255ADE;}
	.st151{clip-path:url(#SVGID_4_);fill:#255ADD;}
	.st152{clip-path:url(#SVGID_4_);fill:#2459DC;}
	.st153{clip-path:url(#SVGID_4_);fill:#2459DB;}
	.st154{clip-path:url(#SVGID_4_);fill:#2359DA;}
	.st155{clip-path:url(#SVGID_4_);fill:#2358D9;}
	.st156{clip-path:url(#SVGID_4_);fill:#2258D8;}
	.st157{clip-path:url(#SVGID_4_);fill:#2258D7;}
	.st158{clip-path:url(#SVGID_4_);fill:#2158D6;}
	.st159{clip-path:url(#SVGID_4_);fill:#2157D5;}
	.st160{clip-path:url(#SVGID_4_);fill:#2157D4;}
	.st161{clip-path:url(#SVGID_4_);fill:#2057D3;}
	.st162{clip-path:url(#SVGID_4_);fill:#2056D2;}
	.st163{clip-path:url(#SVGID_4_);fill:#1F56D1;}
	.st164{clip-path:url(#SVGID_4_);fill:#1F56D0;}
	.st165{clip-path:url(#SVGID_4_);fill:#1E55CF;}
	.st166{clip-path:url(#SVGID_4_);fill:#1E55CE;}
	.st167{clip-path:url(#SVGID_4_);fill:#1D55CD;}
	.st168{clip-path:url(#SVGID_4_);fill:#1D54CC;}
	.st169{clip-path:url(#SVGID_4_);fill:#1C54CB;}
	.st170{clip-path:url(#SVGID_4_);fill:#1C54CA;}
	.st171{clip-path:url(#SVGID_4_);fill:#1C54C9;}
	.st172{clip-path:url(#SVGID_4_);fill:#1B53C8;}
	.st173{clip-path:url(#SVGID_4_);fill:#1B53C7;}
	.st174{clip-path:url(#SVGID_4_);fill:#1A53C6;}
	.st175{clip-path:url(#SVGID_4_);fill:#1A52C4;}
	.st176{clip-path:url(#SVGID_4_);fill:#1952C3;}
	.st177{clip-path:url(#SVGID_4_);fill:#1952C2;}
	.st178{clip-path:url(#SVGID_4_);fill:#1851C1;}
	.st179{clip-path:url(#SVGID_4_);fill:#1851C0;}
	.st180{clip-path:url(#SVGID_4_);fill:#1851BF;}
	.st181{clip-path:url(#SVGID_4_);fill:#1751BE;}
	.st182{clip-path:url(#SVGID_4_);fill:#1750BD;}
	.st183{clip-path:url(#SVGID_4_);fill:#1650BC;}
	.st184{clip-path:url(#SVGID_4_);fill:#1650BB;}
	.st185{clip-path:url(#SVGID_4_);fill:#154FBA;}
	.st186{clip-path:url(#SVGID_4_);fill:#154FB9;}
	.st187{clip-path:url(#SVGID_4_);fill:#144FB8;}
	.st188{clip-path:url(#SVGID_4_);fill:#144EB7;}
	.st189{clip-path:url(#SVGID_4_);fill:#134EB6;}
	.st190{clip-path:url(#SVGID_4_);fill:#134EB5;}
	.st191{clip-path:url(#SVGID_4_);fill:#134DB4;}
	.st192{clip-path:url(#SVGID_4_);fill:#124DB3;}
	.st193{clip-path:url(#SVGID_4_);fill:#124DB2;}
	.st194{clip-path:url(#SVGID_4_);fill:#114DB1;}
	.st195{clip-path:url(#SVGID_4_);fill:#114CB0;}
	.st196{clip-path:url(#SVGID_4_);fill:#104CAF;}
	.st197{clip-path:url(#SVGID_4_);fill:#104CAE;}
	.st198{clip-path:url(#SVGID_4_);fill:#0F4BAD;}
	.st199{clip-path:url(#SVGID_4_);fill:#0F4BAC;}
	.st200{clip-path:url(#SVGID_4_);fill:#0E4BAB;}
	.st201{clip-path:url(#SVGID_4_);fill:#0E4AAA;}
	.st202{clip-path:url(#SVGID_4_);fill:#0E4AA9;}
	.st203{clip-path:url(#SVGID_4_);fill:#0D4AA8;}
	.st204{clip-path:url(#SVGID_4_);fill:#0D4AA7;}
	.st205{clip-path:url(#SVGID_4_);fill:#0C49A6;}
	.st206{clip-path:url(#SVGID_4_);fill:#0C49A5;}
	.st207{clip-path:url(#SVGID_4_);fill:#0B49A4;}
	.st208{clip-path:url(#SVGID_4_);fill:#0B48A3;}
	.st209{clip-path:url(#SVGID_4_);fill:#0A48A2;}
	.st210{clip-path:url(#SVGID_4_);fill:#0A48A1;}
	.st211{clip-path:url(#SVGID_4_);fill:#0947A0;}
	.st212{clip-path:url(#SVGID_4_);fill:#09479F;}
	.st213{clip-path:url(#SVGID_4_);fill:#09479E;}
	.st214{clip-path:url(#SVGID_4_);fill:#08469D;}
	.st215{clip-path:url(#SVGID_4_);fill:#08469C;}
	.st216{clip-path:url(#SVGID_4_);fill:#07469B;}
	.st217{clip-path:url(#SVGID_4_);fill:#07469A;}
	.st218{clip-path:url(#SVGID_4_);fill:#064599;}
	.st219{clip-path:url(#SVGID_4_);fill:#064598;}
	.st220{clip-path:url(#SVGID_4_);fill:#054597;}
	.st221{clip-path:url(#SVGID_4_);fill:#054496;}
	.st222{clip-path:url(#SVGID_4_);fill:#054495;}
	.st223{clip-path:url(#SVGID_4_);fill:#044494;}
	.st224{clip-path:url(#SVGID_4_);fill:#044393;}
	.st225{clip-path:url(#SVGID_4_);fill:#034392;}
	.st226{clip-path:url(#SVGID_4_);fill:#034391;}
	.st227{clip-path:url(#SVGID_4_);fill:#024390;}
	.st228{clip-path:url(#SVGID_4_);fill:#02428F;}
	.st229{clip-path:url(#SVGID_4_);fill:#01428E;}
	.st230{clip-path:url(#SVGID_4_);fill:#01428D;}
	.st231{clip-path:url(#SVGID_4_);fill:#00418C;}
	.st232{clip-path:url(#SVGID_4_);fill:#00418B;}
	.st233{clip-path:url(#SVGID_6_);fill:#3464FF;}
	.st234{clip-path:url(#SVGID_6_);fill:#3565FF;}
	.st235{clip-path:url(#SVGID_6_);fill:#3666FF;}
	.st236{clip-path:url(#SVGID_6_);fill:#3766FF;}
	.st237{clip-path:url(#SVGID_6_);fill:#3867FF;}
	.st238{clip-path:url(#SVGID_6_);fill:#3968FF;}
	.st239{clip-path:url(#SVGID_6_);fill:#3A69FF;}
	.st240{clip-path:url(#SVGID_6_);fill:#3B69FF;}
	.st241{clip-path:url(#SVGID_6_);fill:#3C6AFF;}
	.st242{clip-path:url(#SVGID_6_);fill:#3D6BFF;}
	.st243{clip-path:url(#SVGID_6_);fill:#3E6CFF;}
	.st244{clip-path:url(#SVGID_6_);fill:#3F6DFF;}
	.st245{clip-path:url(#SVGID_6_);fill:#406DFF;}
	.st246{clip-path:url(#SVGID_6_);fill:#416EFF;}
	.st247{clip-path:url(#SVGID_6_);fill:#426FFF;}
	.st248{clip-path:url(#SVGID_6_);fill:#4370FF;}
	.st249{clip-path:url(#SVGID_6_);fill:#4470FF;}
	.st250{clip-path:url(#SVGID_6_);fill:#4571FF;}
	.st251{clip-path:url(#SVGID_6_);fill:#4672FF;}
	.st252{clip-path:url(#SVGID_6_);fill:#4773FF;}
	.st253{clip-path:url(#SVGID_6_);fill:#4974FF;}
	.st254{clip-path:url(#SVGID_6_);fill:#4A74FF;}
	.st255{clip-path:url(#SVGID_6_);fill:#4B75FF;}
	.st256{clip-path:url(#SVGID_6_);fill:#4C76FF;}
	.st257{clip-path:url(#SVGID_6_);fill:#4D77FF;}
	.st258{clip-path:url(#SVGID_6_);fill:#4E77FF;}
	.st259{clip-path:url(#SVGID_6_);fill:#4F78FF;}
	.st260{clip-path:url(#SVGID_6_);fill:#5079FF;}
	.st261{clip-path:url(#SVGID_6_);fill:#517AFF;}
	.st262{clip-path:url(#SVGID_6_);fill:#527AFF;}
	.st263{clip-path:url(#SVGID_6_);fill:#537BFF;}
	.st264{clip-path:url(#SVGID_6_);fill:#547CFF;}
	.st265{clip-path:url(#SVGID_6_);fill:#557DFF;}
	.st266{clip-path:url(#SVGID_6_);fill:#567EFF;}
	.st267{clip-path:url(#SVGID_6_);fill:#577EFF;}
	.st268{clip-path:url(#SVGID_6_);fill:#587FFF;}
	.st269{clip-path:url(#SVGID_6_);fill:#5980FF;}
	.st270{clip-path:url(#SVGID_6_);fill:#5A81FF;}
	.st271{clip-path:url(#SVGID_6_);fill:#5B81FF;}
	.st272{clip-path:url(#SVGID_6_);fill:#5C82FF;}
	.st273{clip-path:url(#SVGID_6_);fill:#5D83FF;}
</style>
<g>
	<path class="st0" d="M7005.49,7540.54c49.17-6.28,87.17-48.21,87.17-99v-254.76c32.55,20.35,70.98,32.13,112.11,32.13
		c39.35,0,76.22-10.77,107.83-29.52c62.37-36.96,104.27-104.98,104.27-182.59c0-95.22-63.07-175.98-149.63-202.71l-0.06-0.02
		c-19.74-6.09-40.7-9.37-62.41-9.37c-34.36,0-66.83,8.21-95.56,22.77c-69.09,35.01-116.55,106.73-116.55,189.33v524.65
		C6994.77,7541.23,7005.49,7540.54,7005.49,7540.54z M7153.04,6907.37c15.48-8.1,33.08-12.67,51.73-12.67
		c61.81,0,112.1,50.29,112.1,112.1c0,18.93-4.71,36.78-13.03,52.43c-0.02,0.03-0.03,0.04-0.03,0.04
		c-15.75,29.63-44.41,51.39-78.42,57.74c-6.69,1.25-13.58,1.9-20.62,1.9c-61.82,0-112.11-50.29-112.11-112.11
		C7092.66,6963.63,7117.19,6926.09,7153.04,6907.37z"/>
</g>
<g>
	<g>
		<defs>
			<path id="SVGID_1_" d="M7109.21,6817.47c28.73-14.56,61.2-22.77,95.56-22.77c21.71,0,42.67,3.28,62.41,9.37l0.06,0.02
				c133.62,115.66,38.37,252.62,36.6,255.14c8.32-15.65,13.03-33.5,13.03-52.43c0-61.81-50.29-112.1-112.1-112.1
				c-18.65,0-36.25,4.57-51.73,12.67L7109.21,6817.47z"/>
		</defs>
		<clipPath id="SVGID_2_">
			<use xlink:href="#SVGID_1_"  style="overflow:visible;"/>
		</clipPath>
		<rect x="7338.39" y="6794.7" class="st1" width="62.47" height="264.53"/>
		<rect x="7336.69" y="6794.7" class="st1" width="1.7" height="264.53"/>
		<rect x="7334.98" y="6794.7" class="st2" width="1.7" height="264.53"/>
		<rect x="7333.28" y="6794.7" class="st3" width="1.7" height="264.53"/>
		<rect x="7331.57" y="6794.7" class="st4" width="1.7" height="264.53"/>
		<rect x="7329.87" y="6794.7" class="st5" width="1.7" height="264.53"/>
		<rect x="7328.17" y="6794.7" class="st6" width="1.7" height="264.53"/>
		<rect x="7326.46" y="6794.7" class="st7" width="1.7" height="264.53"/>
		<rect x="7324.76" y="6794.7" class="st8" width="1.7" height="264.53"/>
		<rect x="7323.06" y="6794.7" class="st9" width="1.7" height="264.53"/>
		<rect x="7321.35" y="6794.7" class="st10" width="1.7" height="264.53"/>
		<rect x="7319.65" y="6794.7" class="st11" width="1.7" height="264.53"/>
		<rect x="7317.94" y="6794.7" class="st12" width="1.7" height="264.53"/>
		<rect x="7316.24" y="6794.7" class="st13" width="1.7" height="264.53"/>
		<rect x="7314.54" y="6794.7" class="st14" width="1.7" height="264.53"/>
		<rect x="7312.83" y="6794.7" class="st15" width="1.7" height="264.53"/>
		<rect x="7311.13" y="6794.7" class="st16" width="1.7" height="264.53"/>
		<rect x="7309.42" y="6794.7" class="st17" width="1.7" height="264.53"/>
		<rect x="7307.72" y="6794.7" class="st18" width="1.7" height="264.53"/>
		<rect x="7306.02" y="6794.7" class="st19" width="1.7" height="264.53"/>
		<rect x="7304.31" y="6794.7" class="st20" width="1.7" height="264.53"/>
		<rect x="7302.61" y="6794.7" class="st21" width="1.7" height="264.53"/>
		<rect x="7300.9" y="6794.7" class="st22" width="1.7" height="264.53"/>
		<rect x="7299.2" y="6794.7" class="st23" width="1.7" height="264.53"/>
		<rect x="7297.5" y="6794.7" class="st24" width="1.7" height="264.53"/>
		<rect x="7295.79" y="6794.7" class="st25" width="1.7" height="264.53"/>
		<rect x="7294.09" y="6794.7" class="st26" width="1.7" height="264.53"/>
		<rect x="7292.38" y="6794.7" class="st27" width="1.7" height="264.53"/>
		<rect x="7290.68" y="6794.7" class="st28" width="1.7" height="264.53"/>
		<rect x="7288.98" y="6794.7" class="st29" width="1.7" height="264.53"/>
		<rect x="7287.27" y="6794.7" class="st30" width="1.7" height="264.53"/>
		<rect x="7285.57" y="6794.7" class="st31" width="1.7" height="264.53"/>
		<rect x="7283.87" y="6794.7" class="st32" width="1.7" height="264.53"/>
		<rect x="7282.16" y="6794.7" class="st33" width="1.7" height="264.53"/>
		<rect x="7280.46" y="6794.7" class="st34" width="1.7" height="264.53"/>
		<rect x="7278.75" y="6794.7" class="st35" width="1.7" height="264.53"/>
		<rect x="7277.05" y="6794.7" class="st36" width="1.7" height="264.53"/>
		<rect x="7275.35" y="6794.7" class="st37" width="1.7" height="264.53"/>
		<rect x="7273.64" y="6794.7" class="st38" width="1.7" height="264.53"/>
		<rect x="7271.94" y="6794.7" class="st39" width="1.7" height="264.53"/>
		<rect x="7270.23" y="6794.7" class="st40" width="1.7" height="264.53"/>
		<rect x="7268.53" y="6794.7" class="st41" width="1.7" height="264.53"/>
		<rect x="7266.83" y="6794.7" class="st42" width="1.7" height="264.53"/>
		<rect x="7265.12" y="6794.7" class="st43" width="1.7" height="264.53"/>
		<rect x="7263.42" y="6794.7" class="st44" width="1.7" height="264.53"/>
		<rect x="7261.71" y="6794.7" class="st45" width="1.7" height="264.53"/>
		<rect x="7260.01" y="6794.7" class="st46" width="1.7" height="264.53"/>
		<rect x="7258.31" y="6794.7" class="st47" width="1.7" height="264.53"/>
		<rect x="7256.6" y="6794.7" class="st48" width="1.7" height="264.53"/>
		<rect x="7254.9" y="6794.7" class="st49" width="1.7" height="264.53"/>
		<rect x="7253.2" y="6794.7" class="st50" width="1.7" height="264.53"/>
		<rect x="7251.49" y="6794.7" class="st51" width="1.7" height="264.53"/>
		<rect x="7249.79" y="6794.7" class="st52" width="1.7" height="264.53"/>
		<rect x="7248.08" y="6794.7" class="st53" width="1.7" height="264.53"/>
		<rect x="7246.38" y="6794.7" class="st54" width="1.7" height="264.53"/>
		<rect x="7244.68" y="6794.7" class="st55" width="1.7" height="264.53"/>
		<rect x="7242.97" y="6794.7" class="st56" width="1.7" height="264.53"/>
		<rect x="7241.27" y="6794.7" class="st57" width="1.7" height="264.53"/>
		<rect x="7239.56" y="6794.7" class="st58" width="1.7" height="264.53"/>
		<rect x="7237.86" y="6794.7" class="st59" width="1.7" height="264.53"/>
		<rect x="7236.16" y="6794.7" class="st60" width="1.7" height="264.53"/>
		<rect x="7234.45" y="6794.7" class="st61" width="1.7" height="264.53"/>
		<rect x="7232.75" y="6794.7" class="st62" width="1.7" height="264.53"/>
		<rect x="7231.04" y="6794.7" class="st63" width="1.7" height="264.53"/>
		<rect x="7229.34" y="6794.7" class="st64" width="1.7" height="264.53"/>
		<rect x="7227.64" y="6794.7" class="st65" width="1.7" height="264.53"/>
		<rect x="7225.93" y="6794.7" class="st66" width="1.7" height="264.53"/>
		<rect x="7224.23" y="6794.7" class="st67" width="1.7" height="264.53"/>
		<rect x="7222.52" y="6794.7" class="st68" width="1.7" height="264.53"/>
		<rect x="7220.82" y="6794.7" class="st69" width="1.7" height="264.53"/>
		<rect x="7219.12" y="6794.7" class="st70" width="1.7" height="264.53"/>
		<rect x="7217.41" y="6794.7" class="st71" width="1.7" height="264.53"/>
		<rect x="7215.71" y="6794.7" class="st72" width="1.7" height="264.53"/>
		<rect x="7214.01" y="6794.7" class="st73" width="1.7" height="264.53"/>
		<rect x="7212.3" y="6794.7" class="st74" width="1.7" height="264.53"/>
		<rect x="7210.6" y="6794.7" class="st75" width="1.7" height="264.53"/>
		<rect x="7208.89" y="6794.7" class="st76" width="1.7" height="264.53"/>
		<rect x="7207.19" y="6794.7" class="st77" width="1.7" height="264.53"/>
		<rect x="7205.49" y="6794.7" class="st78" width="1.7" height="264.53"/>
		<rect x="7203.78" y="6794.7" class="st79" width="1.7" height="264.53"/>
		<rect x="7202.08" y="6794.7" class="st80" width="1.7" height="264.53"/>
		<rect x="7200.37" y="6794.7" class="st81" width="1.7" height="264.53"/>
		<rect x="7198.67" y="6794.7" class="st82" width="1.7" height="264.53"/>
		<rect x="7196.97" y="6794.7" class="st83" width="1.7" height="264.53"/>
		<rect x="7195.26" y="6794.7" class="st84" width="1.7" height="264.53"/>
		<rect x="7193.56" y="6794.7" class="st85" width="1.7" height="264.53"/>
		<rect x="7191.85" y="6794.7" class="st86" width="1.7" height="264.53"/>
		<rect x="7190.15" y="6794.7" class="st87" width="1.7" height="264.53"/>
		<rect x="7188.45" y="6794.7" class="st88" width="1.7" height="264.53"/>
		<rect x="7186.74" y="6794.7" class="st89" width="1.7" height="264.53"/>
		<rect x="7185.04" y="6794.7" class="st90" width="1.7" height="264.53"/>
		<rect x="7183.33" y="6794.7" class="st91" width="1.7" height="264.53"/>
		<rect x="7181.63" y="6794.7" class="st92" width="1.7" height="264.53"/>
		<rect x="7179.93" y="6794.7" class="st93" width="1.7" height="264.53"/>
		<rect x="7178.22" y="6794.7" class="st94" width="1.7" height="264.53"/>
		<rect x="7176.52" y="6794.7" class="st95" width="1.7" height="264.53"/>
		<rect x="7174.82" y="6794.7" class="st96" width="1.7" height="264.53"/>
		<rect x="7173.11" y="6794.7" class="st97" width="1.7" height="264.53"/>
		<rect x="7171.41" y="6794.7" class="st98" width="1.7" height="264.53"/>
		<rect x="7169.7" y="6794.7" class="st99" width="1.7" height="264.53"/>
		<rect x="7168" y="6794.7" class="st100" width="1.7" height="264.53"/>
		<rect x="7166.3" y="6794.7" class="st101" width="1.7" height="264.53"/>
		<rect x="7164.59" y="6794.7" class="st102" width="1.7" height="264.53"/>
		<rect x="7162.89" y="6794.7" class="st103" width="1.7" height="264.53"/>
		<rect x="7161.18" y="6794.7" class="st104" width="1.7" height="264.53"/>
		<rect x="7159.48" y="6794.7" class="st105" width="1.7" height="264.53"/>
		<rect x="7157.78" y="6794.7" class="st106" width="1.7" height="264.53"/>
		<rect x="7156.07" y="6794.7" class="st107" width="1.7" height="264.53"/>
		<rect x="7154.37" y="6794.7" class="st108" width="1.7" height="264.53"/>
		<rect x="7152.66" y="6794.7" class="st109" width="1.7" height="264.53"/>
		<rect x="7150.96" y="6794.7" class="st110" width="1.7" height="264.53"/>
		<rect x="7149.26" y="6794.7" class="st111" width="1.7" height="264.53"/>
		<rect x="7147.55" y="6794.7" class="st112" width="1.7" height="264.53"/>
		<rect x="7145.85" y="6794.7" class="st113" width="1.7" height="264.53"/>
		<rect x="7144.15" y="6794.7" class="st114" width="1.7" height="264.53"/>
		<rect x="7142.44" y="6794.7" class="st115" width="1.7" height="264.53"/>
		<rect x="7140.74" y="6794.7" class="st116" width="1.7" height="264.53"/>
		<rect x="7109.21" y="6794.7" class="st116" width="31.53" height="264.53"/>
	</g>
</g>
<g>
	<g>
		<defs>
			<path id="SVGID_3_" d="M7092.66,7186.78V7006.8c0,61.82,50.29,112.11,112.11,112.11c7.04,0,13.93-0.65,20.62-1.9
				c30.95,25.69,62.15,51.59,87.21,72.38c-31.61,18.75-68.48,29.52-107.83,29.52C7163.64,7218.91,7125.21,7207.13,7092.66,7186.78z"
				/>
		</defs>
		<clipPath id="SVGID_4_">
			<use xlink:href="#SVGID_3_"  style="overflow:visible;"/>
		</clipPath>
		<polygon class="st117" points="7312.6,7208.87 7278.76,7214.83 7242.08,7006.8 7312.6,7006.8 		"/>
		<polygon class="st117" points="7278.76,7214.83 7277.25,7215.1 7240.52,7006.8 7242.08,7006.8 		"/>
		<polygon class="st118" points="7277.25,7215.1 7275.73,7215.37 7238.96,7006.8 7240.52,7006.8 		"/>
		<polygon class="st119" points="7275.73,7215.37 7274.22,7215.63 7237.4,7006.8 7238.96,7006.8 		"/>
		<polygon class="st120" points="7274.22,7215.63 7272.71,7215.9 7235.84,7006.8 7237.4,7006.8 		"/>
		<polygon class="st121" points="7272.71,7215.9 7271.19,7216.17 7234.27,7006.8 7235.84,7006.8 		"/>
		<polygon class="st122" points="7271.19,7216.17 7269.68,7216.43 7232.71,7006.8 7234.27,7006.8 		"/>
		<polygon class="st123" points="7269.68,7216.43 7268.16,7216.7 7231.15,7006.8 7232.71,7006.8 		"/>
		<polygon class="st124" points="7268.16,7216.7 7266.65,7216.97 7229.59,7006.8 7231.15,7006.8 		"/>
		<polygon class="st125" points="7266.65,7216.97 7265.13,7217.24 7228.03,7006.8 7229.59,7006.8 		"/>
		<polygon class="st126" points="7265.13,7217.24 7263.62,7217.5 7226.47,7006.8 7228.03,7006.8 		"/>
		<polygon class="st127" points="7263.62,7217.5 7262.1,7217.77 7224.9,7006.8 7226.47,7006.8 		"/>
		<polygon class="st128" points="7262.1,7217.77 7260.59,7218.04 7223.34,7006.8 7224.9,7006.8 		"/>
		<polygon class="st129" points="7260.59,7218.04 7259.07,7218.3 7221.78,7006.8 7223.34,7006.8 		"/>
		<polygon class="st130" points="7259.07,7218.3 7257.56,7218.57 7220.22,7006.8 7221.78,7006.8 		"/>
		<polygon class="st131" points="7257.56,7218.57 7256.04,7218.84 7218.66,7006.8 7220.22,7006.8 		"/>
		<polygon class="st132" points="7256.04,7218.84 7255.64,7218.91 7254.5,7218.91 7217.1,7006.8 7218.66,7006.8 		"/>
		<polygon class="st133" points="7252.93,7218.91 7215.53,7006.8 7217.1,7006.8 7254.5,7218.91 		"/>
		<polygon class="st134" points="7251.37,7218.91 7213.97,7006.8 7215.53,7006.8 7252.93,7218.91 		"/>
		<polygon class="st135" points="7249.81,7218.91 7212.41,7006.8 7213.97,7006.8 7251.37,7218.91 		"/>
		<polygon class="st136" points="7248.25,7218.91 7210.85,7006.8 7212.41,7006.8 7249.81,7218.91 		"/>
		<polygon class="st137" points="7246.69,7218.91 7209.29,7006.8 7210.85,7006.8 7248.25,7218.91 		"/>
		<polygon class="st138" points="7245.13,7218.91 7207.73,7006.8 7209.29,7006.8 7246.69,7218.91 		"/>
		<polygon class="st139" points="7243.56,7218.91 7206.16,7006.8 7207.73,7006.8 7245.13,7218.91 		"/>
		<polygon class="st140" points="7242,7218.91 7204.6,7006.8 7206.16,7006.8 7243.56,7218.91 		"/>
		<polygon class="st141" points="7240.44,7218.91 7203.04,7006.8 7204.6,7006.8 7242,7218.91 		"/>
		<polygon class="st142" points="7238.88,7218.91 7201.48,7006.8 7203.04,7006.8 7240.44,7218.91 		"/>
		<polygon class="st143" points="7237.32,7218.91 7199.92,7006.8 7201.48,7006.8 7238.88,7218.91 		"/>
		<polygon class="st144" points="7235.76,7218.91 7198.35,7006.8 7199.92,7006.8 7237.32,7218.91 		"/>
		<polygon class="st145" points="7234.19,7218.91 7196.79,7006.8 7198.35,7006.8 7235.76,7218.91 		"/>
		<polygon class="st146" points="7232.63,7218.91 7195.23,7006.8 7196.79,7006.8 7234.19,7218.91 		"/>
		<polygon class="st147" points="7231.07,7218.91 7193.67,7006.8 7195.23,7006.8 7232.63,7218.91 		"/>
		<polygon class="st148" points="7229.51,7218.91 7192.11,7006.8 7193.67,7006.8 7231.07,7218.91 		"/>
		<polygon class="st149" points="7227.95,7218.91 7190.55,7006.8 7192.11,7006.8 7229.51,7218.91 		"/>
		<polygon class="st150" points="7226.39,7218.91 7188.98,7006.8 7190.55,7006.8 7227.95,7218.91 		"/>
		<polygon class="st151" points="7224.82,7218.91 7187.42,7006.8 7188.98,7006.8 7226.39,7218.91 		"/>
		<polygon class="st152" points="7223.26,7218.91 7185.86,7006.8 7187.42,7006.8 7224.82,7218.91 		"/>
		<polygon class="st153" points="7221.7,7218.91 7184.3,7006.8 7185.86,7006.8 7223.26,7218.91 		"/>
		<polygon class="st154" points="7220.14,7218.91 7182.74,7006.8 7184.3,7006.8 7221.7,7218.91 		"/>
		<polygon class="st155" points="7218.58,7218.91 7181.18,7006.8 7182.74,7006.8 7220.14,7218.91 		"/>
		<polygon class="st156" points="7217.02,7218.91 7179.61,7006.8 7181.18,7006.8 7218.58,7218.91 		"/>
		<polygon class="st157" points="7215.45,7218.91 7178.05,7006.8 7179.61,7006.8 7217.02,7218.91 		"/>
		<polygon class="st158" points="7213.89,7218.91 7176.49,7006.8 7178.05,7006.8 7215.45,7218.91 		"/>
		<polygon class="st159" points="7212.33,7218.91 7174.93,7006.8 7176.49,7006.8 7213.89,7218.91 		"/>
		<polygon class="st160" points="7210.77,7218.91 7173.37,7006.8 7174.93,7006.8 7212.33,7218.91 		"/>
		<polygon class="st161" points="7209.21,7218.91 7171.81,7006.8 7173.37,7006.8 7210.77,7218.91 		"/>
		<polygon class="st162" points="7207.65,7218.91 7170.24,7006.8 7171.81,7006.8 7209.21,7218.91 		"/>
		<polygon class="st163" points="7206.08,7218.91 7168.68,7006.8 7170.24,7006.8 7207.65,7218.91 		"/>
		<polygon class="st164" points="7204.52,7218.91 7167.12,7006.8 7168.68,7006.8 7206.08,7218.91 		"/>
		<polygon class="st165" points="7202.96,7218.91 7165.56,7006.8 7167.12,7006.8 7204.52,7218.91 		"/>
		<polygon class="st166" points="7201.4,7218.91 7164,7006.8 7165.56,7006.8 7202.96,7218.91 		"/>
		<polygon class="st167" points="7199.84,7218.91 7162.44,7006.8 7164,7006.8 7201.4,7218.91 		"/>
		<polygon class="st168" points="7198.27,7218.91 7160.87,7006.8 7162.44,7006.8 7199.84,7218.91 		"/>
		<polygon class="st169" points="7196.71,7218.91 7159.31,7006.8 7160.87,7006.8 7198.27,7218.91 		"/>
		<polygon class="st170" points="7195.15,7218.91 7157.75,7006.8 7159.31,7006.8 7196.71,7218.91 		"/>
		<polygon class="st171" points="7193.59,7218.91 7156.19,7006.8 7157.75,7006.8 7195.15,7218.91 		"/>
		<polygon class="st172" points="7192.03,7218.91 7154.63,7006.8 7156.19,7006.8 7193.59,7218.91 		"/>
		<polygon class="st173" points="7190.47,7218.91 7153.07,7006.8 7154.63,7006.8 7192.03,7218.91 		"/>
		<polygon class="st174" points="7188.9,7218.91 7151.5,7006.8 7153.07,7006.8 7190.47,7218.91 		"/>
		<polygon class="st175" points="7187.34,7218.91 7149.94,7006.8 7151.5,7006.8 7188.9,7218.91 		"/>
		<polygon class="st176" points="7185.78,7218.91 7148.38,7006.8 7149.94,7006.8 7187.34,7218.91 		"/>
		<polygon class="st177" points="7184.22,7218.91 7146.82,7006.8 7148.38,7006.8 7185.78,7218.91 		"/>
		<polygon class="st178" points="7182.66,7218.91 7145.26,7006.8 7146.82,7006.8 7184.22,7218.91 		"/>
		<polygon class="st179" points="7181.1,7218.91 7143.69,7006.8 7145.26,7006.8 7182.66,7218.91 		"/>
		<polygon class="st180" points="7179.53,7218.91 7142.13,7006.8 7143.69,7006.8 7181.1,7218.91 		"/>
		<polygon class="st181" points="7177.97,7218.91 7140.57,7006.8 7142.13,7006.8 7179.53,7218.91 		"/>
		<polygon class="st182" points="7176.41,7218.91 7139.01,7006.8 7140.57,7006.8 7177.97,7218.91 		"/>
		<polygon class="st183" points="7174.85,7218.91 7137.45,7006.8 7139.01,7006.8 7176.41,7218.91 		"/>
		<polygon class="st184" points="7173.29,7218.91 7135.89,7006.8 7137.45,7006.8 7174.85,7218.91 		"/>
		<polygon class="st185" points="7171.73,7218.91 7134.32,7006.8 7135.89,7006.8 7173.29,7218.91 		"/>
		<polygon class="st186" points="7170.16,7218.91 7132.76,7006.8 7134.32,7006.8 7171.73,7218.91 		"/>
		<polygon class="st187" points="7168.6,7218.91 7131.2,7006.8 7132.76,7006.8 7170.16,7218.91 		"/>
		<polygon class="st188" points="7167.04,7218.91 7129.64,7006.8 7131.2,7006.8 7168.6,7218.91 		"/>
		<polygon class="st189" points="7165.48,7218.91 7128.08,7006.8 7129.64,7006.8 7167.04,7218.91 		"/>
		<polygon class="st190" points="7163.92,7218.91 7126.52,7006.8 7128.08,7006.8 7165.48,7218.91 		"/>
		<polygon class="st191" points="7162.36,7218.91 7124.95,7006.8 7126.52,7006.8 7163.92,7218.91 		"/>
		<polygon class="st192" points="7160.79,7218.91 7123.39,7006.8 7124.95,7006.8 7162.36,7218.91 		"/>
		<polygon class="st193" points="7159.23,7218.91 7121.83,7006.8 7123.39,7006.8 7160.79,7218.91 		"/>
		<polygon class="st194" points="7157.67,7218.91 7120.27,7006.8 7121.83,7006.8 7159.23,7218.91 		"/>
		<polygon class="st195" points="7156.11,7218.91 7118.71,7006.8 7120.27,7006.8 7157.67,7218.91 		"/>
		<polygon class="st196" points="7154.55,7218.91 7117.15,7006.8 7118.71,7006.8 7156.11,7218.91 		"/>
		<polygon class="st197" points="7152.98,7218.91 7115.58,7006.8 7117.15,7006.8 7154.55,7218.91 		"/>
		<polygon class="st198" points="7151.42,7218.91 7114.02,7006.8 7115.58,7006.8 7152.98,7218.91 		"/>
		<polygon class="st199" points="7149.86,7218.91 7112.46,7006.8 7114.02,7006.8 7151.42,7218.91 		"/>
		<polygon class="st200" points="7148.3,7218.91 7110.9,7006.8 7112.46,7006.8 7149.86,7218.91 		"/>
		<polygon class="st201" points="7146.74,7218.91 7109.34,7006.8 7110.9,7006.8 7148.3,7218.91 		"/>
		<polygon class="st202" points="7145.18,7218.91 7107.78,7006.8 7109.34,7006.8 7146.74,7218.91 		"/>
		<polygon class="st203" points="7143.61,7218.91 7106.21,7006.8 7107.78,7006.8 7145.18,7218.91 		"/>
		<polygon class="st204" points="7142.05,7218.91 7104.65,7006.8 7106.21,7006.8 7143.61,7218.91 		"/>
		<polygon class="st205" points="7140.49,7218.91 7103.09,7006.8 7104.65,7006.8 7142.05,7218.91 		"/>
		<polygon class="st206" points="7138.93,7218.91 7101.53,7006.8 7103.09,7006.8 7140.49,7218.91 		"/>
		<polygon class="st207" points="7137.37,7218.91 7099.97,7006.8 7101.53,7006.8 7138.93,7218.91 		"/>
		<polygon class="st208" points="7135.81,7218.91 7098.41,7006.8 7099.97,7006.8 7137.37,7218.91 		"/>
		<polygon class="st209" points="7134.24,7218.91 7096.84,7006.8 7098.41,7006.8 7135.81,7218.91 		"/>
		<polygon class="st210" points="7132.68,7218.91 7095.28,7006.8 7096.84,7006.8 7134.24,7218.91 		"/>
		<polygon class="st211" points="7131.12,7218.91 7093.72,7006.8 7095.28,7006.8 7132.68,7218.91 		"/>
		<polygon class="st212" points="7129.56,7218.91 7092.66,7009.64 7092.66,7006.8 7093.72,7006.8 7131.12,7218.91 		"/>
		<polygon class="st213" points="7128,7218.91 7092.66,7018.5 7092.66,7009.64 7129.56,7218.91 		"/>
		<polygon class="st214" points="7126.44,7218.91 7092.66,7027.36 7092.66,7018.5 7128,7218.91 		"/>
		<polygon class="st215" points="7124.87,7218.91 7092.66,7036.21 7092.66,7027.36 7126.44,7218.91 		"/>
		<polygon class="st216" points="7123.31,7218.91 7092.66,7045.07 7092.66,7036.21 7124.87,7218.91 		"/>
		<polygon class="st217" points="7121.75,7218.91 7092.66,7053.93 7092.66,7045.07 7123.31,7218.91 		"/>
		<polygon class="st218" points="7120.19,7218.91 7092.66,7062.78 7092.66,7053.93 7121.75,7218.91 		"/>
		<polygon class="st219" points="7118.63,7218.91 7092.66,7071.64 7092.66,7062.78 7120.19,7218.91 		"/>
		<polygon class="st220" points="7117.07,7218.91 7092.66,7080.5 7092.66,7071.64 7118.63,7218.91 		"/>
		<polygon class="st221" points="7115.5,7218.91 7092.66,7089.35 7092.66,7080.5 7117.07,7218.91 		"/>
		<polygon class="st222" points="7113.94,7218.91 7092.66,7098.21 7092.66,7089.35 7115.5,7218.91 		"/>
		<polygon class="st223" points="7112.38,7218.91 7092.66,7107.07 7092.66,7098.21 7113.94,7218.91 		"/>
		<polygon class="st224" points="7110.82,7218.91 7092.66,7115.92 7092.66,7107.07 7112.38,7218.91 		"/>
		<polygon class="st225" points="7109.26,7218.91 7092.66,7124.78 7092.66,7115.92 7110.82,7218.91 		"/>
		<polygon class="st226" points="7107.7,7218.91 7092.66,7133.64 7092.66,7124.78 7109.26,7218.91 		"/>
		<polygon class="st227" points="7106.13,7218.91 7092.66,7142.5 7092.66,7133.64 7107.7,7218.91 		"/>
		<polygon class="st228" points="7104.57,7218.91 7092.66,7151.35 7092.66,7142.5 7106.13,7218.91 		"/>
		<polygon class="st229" points="7103.01,7218.91 7092.66,7160.21 7092.66,7151.35 7104.57,7218.91 		"/>
		<polygon class="st230" points="7101.45,7218.91 7092.66,7169.07 7092.66,7160.21 7103.01,7218.91 		"/>
		<polygon class="st231" points="7099.89,7218.91 7092.66,7177.92 7092.66,7169.07 7101.45,7218.91 		"/>
		<polygon class="st232" points="7098.33,7218.91 7092.66,7186.78 7092.66,7177.92 7099.89,7218.91 		"/>
		<polygon class="st232" points="7092.66,7186.78 7098.33,7218.91 7092.66,7218.91 		"/>
	</g>
</g>
<g>
	<g>
		<defs>
			<path id="SVGID_5_" d="M6992.66,7531.45v-89.91h100c0,50.79-38,92.72-87.17,99C7005.49,7540.54,6994.77,7541.23,6992.66,7531.45z
				"/>
		</defs>
		<clipPath id="SVGID_6_">
			<use xlink:href="#SVGID_5_"  style="overflow:visible;"/>
		</clipPath>
		<path class="st233" d="M7092.66,7441.54h-100H7092.66z"/>
		<rect x="6992.66" y="7441.54" class="st233" width="100" height="1.69"/>
		<rect x="6992.66" y="7443.23" class="st234" width="100" height="1.69"/>
		<rect x="6992.66" y="7444.91" class="st235" width="100" height="1.69"/>
		<rect x="6992.66" y="7446.6" class="st236" width="100" height="1.69"/>
		<rect x="6992.66" y="7448.29" class="st237" width="100" height="1.69"/>
		<rect x="6992.66" y="7449.97" class="st238" width="100" height="1.69"/>
		<rect x="6992.66" y="7451.66" class="st239" width="100" height="1.69"/>
		<rect x="6992.66" y="7453.35" class="st240" width="100" height="1.69"/>
		<rect x="6992.66" y="7455.03" class="st241" width="100" height="1.69"/>
		<rect x="6992.66" y="7456.72" class="st242" width="100" height="1.69"/>
		<rect x="6992.66" y="7458.41" class="st243" width="100" height="1.69"/>
		<rect x="6992.66" y="7460.09" class="st244" width="100" height="1.69"/>
		<rect x="6992.66" y="7461.78" class="st245" width="100" height="1.69"/>
		<rect x="6992.66" y="7463.47" class="st246" width="100" height="1.69"/>
		<rect x="6992.66" y="7465.15" class="st247" width="100" height="1.69"/>
		<rect x="6992.66" y="7466.84" class="st248" width="100" height="1.69"/>
		<rect x="6992.66" y="7468.52" class="st249" width="100" height="1.69"/>
		<rect x="6992.66" y="7470.21" class="st250" width="100" height="1.69"/>
		<rect x="6992.66" y="7471.9" class="st251" width="100" height="1.69"/>
		<rect x="6992.66" y="7473.58" class="st252" width="100" height="1.69"/>
		<rect x="6992.66" y="7475.27" class="st253" width="100" height="1.69"/>
		<rect x="6992.66" y="7476.96" class="st254" width="100" height="1.69"/>
		<rect x="6992.66" y="7478.64" class="st255" width="100" height="1.69"/>
		<rect x="6992.66" y="7480.33" class="st256" width="100" height="1.69"/>
		<rect x="6992.66" y="7482.02" class="st257" width="100" height="1.69"/>
		<rect x="6992.66" y="7483.7" class="st258" width="100" height="1.69"/>
		<rect x="6992.66" y="7485.39" class="st259" width="100" height="1.69"/>
		<rect x="6992.66" y="7487.08" class="st260" width="100" height="1.69"/>
		<rect x="6992.66" y="7488.76" class="st261" width="100" height="1.69"/>
		<rect x="6992.66" y="7490.45" class="st262" width="100" height="1.69"/>
		<rect x="6992.66" y="7492.14" class="st263" width="100" height="1.69"/>
		<rect x="6992.66" y="7493.82" class="st264" width="100" height="1.69"/>
		<rect x="6992.66" y="7495.51" class="st265" width="100" height="1.69"/>
		<rect x="6992.66" y="7497.2" class="st266" width="100" height="1.69"/>
		<rect x="6992.66" y="7498.88" class="st267" width="100" height="1.69"/>
		<rect x="6992.66" y="7500.57" class="st268" width="100" height="1.69"/>
		<rect x="6992.66" y="7502.26" class="st269" width="100" height="1.69"/>
		<rect x="6992.66" y="7503.94" class="st270" width="100" height="1.69"/>
		<rect x="6992.66" y="7505.63" class="st271" width="100" height="1.69"/>
		<rect x="6992.66" y="7507.32" class="st272" width="100" height="1.69"/>
		<rect x="6992.66" y="7509" class="st273" width="100" height="1.69"/>
		<rect x="6992.66" y="7510.69" class="st273" width="100" height="30.54"/>
	</g>
</g>
</svg>
